<svg width="64" height="64" viewBox="0 0 64 64" fill="none" xmlns="http://www.w3.org/2000/svg">
<g id="CaringLogoIcon" clip-path="url(#clip0_1001_16290)">
<path id="Vector" d="M0 22C0 9.84973 9.84973 0 22 0H30C48.7778 0 64 15.2223 64 34C64 50.5685 50.5685 64 34 64H26C11.6406 64 0 52.3594 0 38V22Z" fill="white" fill-opacity="0.5"/>
<path id="Vector_2" d="M43.1627 38.4448C45.1096 39.5688 45.8056 42.1045 44.251 43.7283C42.6347 45.4166 40.6766 46.7634 38.4902 47.669C35.041 49.0978 31.2166 49.3483 27.6104 48.3821C24.0042 47.4158 20.8176 45.2866 18.5448 42.3246C16.272 39.3626 15.04 35.7334 15.04 32C15.04 28.2666 16.272 24.6374 18.5448 21.6754C20.8176 18.7134 24.0042 16.5842 27.6104 15.6179C31.2166 14.6516 35.041 14.9023 38.4902 16.331C40.6766 17.2366 42.6347 18.5834 44.251 20.2717C45.8056 21.8955 45.1096 24.4312 43.1627 25.5552L42.869 25.7248C40.9221 26.8488 38.452 26.0557 36.556 24.8478C36.1419 24.584 35.7035 24.3554 35.2451 24.1654C33.5205 23.4512 31.6083 23.3258 29.8053 23.809C28.0021 24.2922 26.4088 25.3568 25.2723 26.8378C24.136 28.3187 23.52 30.1333 23.52 32C23.52 33.8667 24.136 35.6813 25.2723 37.1622C26.4088 38.6434 28.0021 39.7078 29.8053 40.191C31.6083 40.6742 33.5205 40.5488 35.2451 39.8346C35.7035 39.6446 36.1419 39.416 36.556 39.1522C38.452 37.9443 40.9221 37.1512 42.869 38.2752L43.1627 38.4448Z" fill="white"/>
</g>
<defs>
<clipPath id="clip0_1001_16290">
<rect width="64" height="64" fill="white"/>
</clipPath>
</defs>
</svg>
