<svg preserveAspectRatio="none" width="100%" height="100%" overflow="visible" style="display: block;" viewBox="0 0 13.9688 13.9688" fill="none" xmlns="http://www.w3.org/2000/svg">
<path id="Vector" d="M8.51904 0C8.65164 0 8.77882 0.0526785 8.87259 0.146447L13.8223 5.09619C14.0176 5.29146 14.0176 5.60804 13.8223 5.8033C13.3419 6.28369 12.7504 6.39169 12.3197 6.39169C12.1424 6.39169 11.9842 6.37368 11.859 6.35243L8.72546 9.48596C8.73235 9.51385 8.73943 9.54338 8.74659 9.57443C8.80048 9.80795 8.861 10.1336 8.88535 10.4988C8.93218 11.2013 8.85365 12.1862 8.16548 12.8744C7.97022 13.0696 7.65364 13.0696 7.45838 12.8744L4.62995 10.0459L1.44797 13.2279C1.25271 13.4232 0.229019 14.1303 0.0337567 13.935C-0.161506 13.7398 0.545602 12.7161 0.740864 12.5208L3.92284 9.33883L1.09442 6.51041C0.899153 6.31515 0.899154 5.99856 1.09442 5.8033C1.78259 5.11513 2.76745 5.0366 3.46997 5.08344C3.83515 5.10778 4.16083 5.1683 4.39435 5.22219C4.4254 5.22936 4.45493 5.23643 4.48282 5.24332L7.61636 2.10979C7.59511 1.98455 7.5771 1.82643 7.5771 1.64905C7.5771 1.21842 7.68509 0.62684 8.16548 0.146447C8.25925 0.0526785 8.38643 2.10734e-08 8.51904 0Z" fill="#FD7E14"/>
</svg>
