<svg width="30" height="29" viewBox="0 0 30 28.3587" fill="none" xmlns="http://www.w3.org/2000/svg">
<g id="Vector">
<path d="M15.0001 8.42644C11.639 8.42644 8.91426 11.0021 8.91426 14.1793C8.91426 17.3565 11.639 19.9321 15.0001 19.9321C18.3612 19.9321 21.0859 17.3565 21.0859 14.1793C21.0859 11.0021 18.3612 8.42644 15.0001 8.42644ZM10.7893 14.1793C10.7893 11.981 12.6745 10.1989 15.0001 10.1989C17.3256 10.1989 19.2109 11.981 19.2109 14.1793C19.2109 16.3776 17.3256 18.1597 15.0001 18.1597C12.6745 18.1597 10.7893 16.3776 10.7893 14.1793Z" fill="#FFFFFF"/>
<path d="M18.3684 2.38102C17.3785 -0.793675 12.6215 -0.793673 11.6316 2.38102L11.4556 2.94539C11.1609 3.8908 10.0185 4.33808 9.10288 3.86662L8.55629 3.58518C5.48155 2.00199 2.11786 5.18166 3.79268 8.08817L4.09041 8.60485C4.58916 9.4704 4.11599 10.5502 3.11586 10.8289L2.51883 10.9952C-0.839611 11.931 -0.839609 16.4277 2.51883 17.3634L3.11586 17.5298C4.11599 17.8084 4.58916 18.8883 4.09041 19.7538L3.79268 20.2705C2.11786 23.177 5.48155 26.3567 8.55629 24.7735L9.10288 24.492C10.0185 24.0206 11.1609 24.4679 11.4556 25.4133L11.6316 25.9776C12.6215 29.1523 17.3785 29.1523 18.3684 25.9776L18.5444 25.4133C18.8391 24.4679 19.9815 24.0206 20.8971 24.492L21.4437 24.7735C24.5184 26.3567 27.8821 23.177 26.2073 20.2705L25.9096 19.7538C25.4108 18.8883 25.884 17.8084 26.8841 17.5298L27.4812 17.3634C30.8396 16.4277 30.8396 11.931 27.4812 10.9952L26.8841 10.8289C25.884 10.5502 25.4108 9.47039 25.9096 8.60485L26.2073 8.08816C27.8821 5.18165 24.5184 2.002 21.4437 3.58518L20.8971 3.86662C19.9815 4.33808 18.8391 3.8908 18.5444 2.94539L18.3684 2.38102ZM13.4301 2.88212C13.8915 1.40251 16.1085 1.40251 16.5699 2.88212L16.7459 3.44649C17.3783 5.47498 19.8294 6.43469 21.794 5.4231L22.3406 5.14167C23.7736 4.4038 25.3413 5.88573 24.5607 7.24034L24.263 7.75703C23.1929 9.61417 24.2081 11.9311 26.354 12.529L26.9511 12.6953C28.5163 13.1315 28.5163 15.2272 26.9511 15.6633L26.354 15.8297C24.2081 16.4276 23.1929 18.7445 24.263 20.6016L24.5607 21.1183C25.3413 22.4729 23.7736 23.9549 22.3406 23.217L21.794 22.9356C19.8294 21.924 17.3783 22.8837 16.7459 24.9122L16.5699 25.4765C16.1085 26.9561 13.8915 26.9561 13.4301 25.4765L13.2541 24.9122C12.6216 22.8837 10.1706 21.924 8.20599 22.9356L7.65939 23.217C6.22638 23.9549 4.65868 22.4729 5.43925 21.1183L5.73698 20.6016C6.80712 18.7445 5.79187 16.4276 3.64597 15.8297L3.04893 15.6633C1.48369 15.2272 1.48369 13.1315 3.04893 12.6953L3.64597 12.529C5.79186 11.9311 6.80712 9.61417 5.73698 7.75703L5.43925 7.24035C4.65868 5.88573 6.22638 4.4038 7.6594 5.14166L8.20599 5.4231C10.1706 6.43469 12.6216 5.47499 13.2541 3.44649L13.4301 2.88212Z" fill="#FFFFFF"/>
</g>
</svg>
